<svg width="140" height="140" viewBox="0 0 140 140" fill="none" xmlns="http://www.w3.org/2000/svg">
  <defs>
    <linearGradient id="bg-fav" x1="0" y1="0" x2="140" y2="140" gradientUnits="userSpaceOnUse">
      <stop offset="0%" stop-color="#080c18"/>
      <stop offset="100%" stop-color="#0c1020"/>
    </linearGradient>
    <linearGradient id="curve-fav" x1="18" y1="70" x2="122" y2="70" gradientUnits="userSpaceOnUse">
      <stop offset="0%" stop-color="#1e40af"/>
      <stop offset="60%" stop-color="#3730a3"/>
      <stop offset="100%" stop-color="#5b21b6"/>
    </linearGradient>
  </defs>
  <rect x="4" y="4" width="132" height="132" rx="30" fill="url(#bg-fav)"/>
  <path d="M18 90 C28 90 45 48 70 48 C95 48 112 78 122 78" stroke="#3730a3" stroke-width="10" fill="none" stroke-linecap="round" opacity="0.2"/>
  <path d="M18 90 C28 90 45 48 70 48 C95 48 112 78 122 78" stroke="url(#curve-fav)" stroke-width="5" fill="none" stroke-linecap="round"/>
  <circle cx="18" cy="90" r="9" fill="#080c18" stroke="#1e40af" stroke-width="3"/>
  <circle cx="18" cy="90" r="4" fill="#93c5fd"/>
  <circle cx="70" cy="48" r="13" fill="#0d0f24" stroke="#4338ca" stroke-width="3"/>
  <circle cx="70" cy="48" r="6" fill="#a5b4fc"/>
  <circle cx="122" cy="78" r="9" fill="#080c18" stroke="#6d28d9" stroke-width="3"/>
  <circle cx="122" cy="78" r="4" fill="#c4b5fd"/>
</svg>
